<?xml version="1.0" encoding="UTF-8" standalone="no"?>
<!-- Created with Inkscape (http://www.inkscape.org/) -->

<svg
   width="151.1346mm"
   height="130.35121mm"
   viewBox="0 0 151.1346 130.35121"
   version="1.1"
   id="svg1"
   xmlns:inkscape="http://www.inkscape.org/namespaces/inkscape"
   xmlns:sodipodi="http://sodipodi.sourceforge.net/DTD/sodipodi-0.dtd"
   xmlns="http://www.w3.org/2000/svg"
   xmlns:svg="http://www.w3.org/2000/svg">
  <sodipodi:namedview
     id="namedview1"
     pagecolor="#ffffff"
     bordercolor="#000000"
     borderopacity="0.25"
     inkscape:showpageshadow="2"
     inkscape:pageopacity="0.0"
     inkscape:pagecheckerboard="0"
     inkscape:deskcolor="#d1d1d1"
     inkscape:document-units="mm">
    <inkscape:page
       x="0"
       y="0"
       width="151.1346"
       height="130.35121"
       id="page2"
       margin="0"
       bleed="0" />
  </sodipodi:namedview>
  <defs
     id="defs1" />
  <g
     inkscape:label="Layer 1"
     inkscape:groupmode="layer"
     id="layer1"
     transform="translate(403.70211,71.294249)">
    <g
       id="g34"
       transform="translate(-380.5269,201.32844)">
      <g
         id="g30"
         transform="translate(151.35577,-228.0276)"
         inkscape:export-filename="logo_white.svg"
         inkscape:export-xdpi="96"
         inkscape:export-ydpi="96">
        <rect
           style="fill:#ffffff;fill-opacity:1;stroke:#ffffff;stroke-width:1.02227;stroke-linecap:round;stroke-linejoin:round;stroke-opacity:1"
           id="rect28"
           width="2.388274"
           height="12.907342"
           x="-130.51819"
           y="63.812672"
           transform="matrix(-0.00161023,-0.9999987,0.9999875,-0.00500044,0,0)" />
        <g
           id="g29">
          <path
             id="path28"
             style="fill:none;stroke:#ffffff;stroke-width:1.91452;stroke-linecap:round;stroke-linejoin:round;stroke-opacity:1"
             d="m 44.371176,109.2376 a 19.735001,19.735001 0 0 1 19.790922,19.67893 19.735001,19.735001 0 0 1 -19.678922,19.79092 19.735001,19.735001 0 0 1 -19.79092,-19.67892 19.735001,19.735001 0 0 1 19.67892,-19.79093 z" />
          <circle
             style="fill:#ffffff;fill-opacity:1;stroke:#ffffff;stroke-width:1.34795;stroke-linecap:round;stroke-linejoin:round;stroke-opacity:1"
             id="circle28"
             cx="44.427177"
             cy="128.97252"
             r="13.89469" />
        </g>
      </g>
      <g
         id="g32"
         transform="translate(152.252,-226.31971)">
        <rect
           style="fill:#ffffff;fill-opacity:1;stroke:#ffffff;stroke-width:1.01014;stroke-linecap:round;stroke-linejoin:round;stroke-opacity:1"
           id="rect30"
           width="2.4000807"
           height="12.540958"
           x="102.72691"
           y="87.204735"
           transform="matrix(0.99999879,-0.00155682,0.00517197,0.99998663,0,0)" />
        <g
           id="g31">
          <path
             id="path30"
             style="fill:none;stroke:#ffffff;stroke-width:1.91452;stroke-linecap:round;stroke-linejoin:round;stroke-opacity:1"
             d="M 124.14519,67.398945 A 19.735001,19.735001 0 0 1 104.46627,87.189866 19.735001,19.735001 0 0 1 84.675352,67.510945 19.735001,19.735001 0 0 1 104.35427,47.720026 19.735001,19.735001 0 0 1 124.14519,67.398945 Z" />
          <circle
             style="fill:#ffffff;fill-opacity:1;stroke:#ffffff;stroke-width:1.34795;stroke-linecap:round;stroke-linejoin:round;stroke-opacity:1"
             id="circle30"
             cx="67.454948"
             cy="-104.41027"
             r="13.89469"
             transform="rotate(90)" />
        </g>
      </g>
      <rect
         style="fill:#ffffff;fill-opacity:1;stroke:#ffffff;stroke-width:1.01014;stroke-linecap:round;stroke-linejoin:round;stroke-opacity:1"
         id="rect32"
         width="2.4000807"
         height="12.540958"
         x="-98.744705"
         y="-298.33124"
         transform="matrix(0.00155682,0.99999879,-0.99998663,0.00517197,0,0)" />
      <path
         id="path32"
         style="fill:none;stroke:#ffffff;stroke-width:1.91452;stroke-linecap:round;stroke-linejoin:round;stroke-opacity:1"
         d="m 317.81827,-79.320151 a 19.735001,19.735001 0 0 1 -19.79092,-19.67892 19.735001,19.735001 0 0 1 19.67892,-19.790929 19.735001,19.735001 0 0 1 19.79092,19.678929 19.735001,19.735001 0 0 1 -19.67892,19.79092 z" />
      <circle
         style="fill:#ffffff;fill-opacity:1;stroke:#ffffff;stroke-width:1.34795;stroke-linecap:round;stroke-linejoin:round;stroke-opacity:1"
         id="circle32"
         cx="-317.76227"
         cy="99.055084"
         r="13.89469"
         transform="scale(-1)" />
      <g
         id="g33"
         transform="translate(151.35577,-226.31971)">
        <path
           id="path33"
           style="fill:none;stroke:#ffffff;stroke-width:2.77326;stroke-linecap:round;stroke-linejoin:round;stroke-opacity:1"
           d="M 133.89339,127.26463 A 28.586884,28.586884 0 0 1 105.3065,155.85152 28.586884,28.586884 0 0 1 76.71962,127.26463 28.586884,28.586884 0 0 1 105.3065,98.67775 28.586884,28.586884 0 0 1 133.89339,127.26463 Z" />
        <circle
           style="fill:#ffffff;fill-opacity:1;stroke:#ffffff;stroke-width:1.79383;stroke-linecap:round;stroke-linejoin:round;stroke-opacity:1"
           id="circle33"
           cx="105.3065"
           cy="127.26463"
           r="18.490858" />
      </g>
      <g
         id="g30-9"
         transform="rotate(-30,-523.78693,70.542805)"
         inkscape:export-filename="logo_white.svg"
         inkscape:export-xdpi="96"
         inkscape:export-ydpi="96">
        <rect
           style="fill:#ffffff;fill-opacity:1;stroke:#ffffff;stroke-width:1.02227;stroke-linecap:round;stroke-linejoin:round;stroke-opacity:1"
           id="rect28-2"
           width="2.388274"
           height="12.907342"
           x="-130.51819"
           y="63.812672"
           transform="matrix(-0.00161023,-0.9999987,0.9999875,-0.00500044,0,0)" />
        <g
           id="g29-0">
          <path
             id="path28-2"
             style="fill:none;stroke:#ffffff;stroke-width:1.91452;stroke-linecap:round;stroke-linejoin:round;stroke-opacity:1"
             d="m 44.371176,109.2376 a 19.735001,19.735001 0 0 1 19.790922,19.67893 19.735001,19.735001 0 0 1 -19.678922,19.79092 19.735001,19.735001 0 0 1 -19.79092,-19.67892 19.735001,19.735001 0 0 1 19.67892,-19.79093 z" />
          <circle
             style="fill:#ffffff;fill-opacity:1;stroke:#ffffff;stroke-width:1.34795;stroke-linecap:round;stroke-linejoin:round;stroke-opacity:1"
             id="circle28-3"
             cx="44.427177"
             cy="128.97252"
             r="13.89469" />
        </g>
      </g>
      <g
         id="g32-7"
         transform="translate(-51.888845,-319.38538)">
        <rect
           style="fill:#ffffff;fill-opacity:1;stroke:#ffffff;stroke-width:1.01014;stroke-linecap:round;stroke-linejoin:round;stroke-opacity:1"
           id="rect30-5"
           width="2.4000807"
           height="12.540958"
           x="102.72691"
           y="87.204735"
           transform="matrix(0.99999879,-0.00155682,0.00517197,0.99998663,0,0)" />
        <g
           id="g31-9">
          <path
             id="path30-2"
             style="fill:none;stroke:#ffffff;stroke-width:1.91452;stroke-linecap:round;stroke-linejoin:round;stroke-opacity:1"
             d="M 124.14519,67.398945 A 19.735001,19.735001 0 0 1 104.46627,87.189866 19.735001,19.735001 0 0 1 84.675352,67.510945 19.735001,19.735001 0 0 1 104.35427,47.720026 19.735001,19.735001 0 0 1 124.14519,67.398945 Z" />
          <circle
             style="fill:#ffffff;fill-opacity:1;stroke:#ffffff;stroke-width:1.34795;stroke-linecap:round;stroke-linejoin:round;stroke-opacity:1"
             id="circle30-2"
             cx="67.454948"
             cy="-104.41027"
             r="13.89469"
             transform="rotate(90)" />
        </g>
      </g>
      <g
         id="g35"
         transform="rotate(30,331.76838,-523.79601)">
        <rect
           style="fill:#ffffff;fill-opacity:1;stroke:#ffffff;stroke-width:1.01014;stroke-linecap:round;stroke-linejoin:round;stroke-opacity:1"
           id="rect32-8"
           width="2.4000807"
           height="12.540958"
           x="-98.744705"
           y="-298.33124"
           transform="matrix(0.00155682,0.99999879,-0.99998663,0.00517197,0,0)" />
        <path
           id="path32-9"
           style="fill:none;stroke:#ffffff;stroke-width:1.91452;stroke-linecap:round;stroke-linejoin:round;stroke-opacity:1"
           d="m 317.81827,-79.320151 a 19.735001,19.735001 0 0 1 -19.79092,-19.67892 19.735001,19.735001 0 0 1 19.67892,-19.790929 19.735001,19.735001 0 0 1 19.79092,19.678929 19.735001,19.735001 0 0 1 -19.67892,19.79092 z" />
        <circle
           style="fill:#ffffff;fill-opacity:1;stroke:#ffffff;stroke-width:1.34795;stroke-linecap:round;stroke-linejoin:round;stroke-opacity:1"
           id="circle32-7"
           cx="-317.76227"
           cy="99.055084"
           r="13.89469"
           transform="scale(-1)" />
      </g>
      <g
         id="g33-3"
         transform="translate(-52.785075,-319.38538)">
        <path
           id="path33-6"
           style="fill:none;stroke:#ffffff;stroke-width:2.77326;stroke-linecap:round;stroke-linejoin:round;stroke-opacity:1"
           d="M 133.89339,127.26463 A 28.586884,28.586884 0 0 1 105.3065,155.85152 28.586884,28.586884 0 0 1 76.71962,127.26463 28.586884,28.586884 0 0 1 105.3065,98.67775 28.586884,28.586884 0 0 1 133.89339,127.26463 Z" />
        <circle
           style="fill:#ffffff;fill-opacity:1;stroke:#ffffff;stroke-width:1.37345;stroke-linecap:round;stroke-linejoin:round;stroke-opacity:1"
           id="circle33-1"
           cx="105.3065"
           cy="127.26463"
           r="14.157549" />
      </g>
    </g>
  </g>
</svg>
